<?xml version="1.0" encoding="utf-8"?>
<!-- Generator: Adobe Illustrator 15.1.0, SVG Export Plug-In . SVG Version: 6.00 Build 0)  -->
<!DOCTYPE svg PUBLIC "-//W3C//DTD SVG 1.1//EN" "http://www.w3.org/Graphics/SVG/1.1/DTD/svg11.dtd">
<svg version="1.1" id="Layer_2" xmlns="http://www.w3.org/2000/svg" xmlns:xlink="http://www.w3.org/1999/xlink" x="0px" y="0px"
	 width="212.6px" height="132.8px" viewBox="0 0 212.6 132.8" enable-background="new 0 0 212.6 132.8" xml:space="preserve">
<polygon fill="#F1BE1C" points="106.216,16.519 127.406,14.924 127.406,68.261 106.216,68.261 "/>
<polygon fill="#FECC36" points="127.406,72.886 106.216,68.248 127.406,68.248 "/>
<path fill="#FFD54B" d="M126.164,0.304c0.679-0.578,1.242-0.31,1.242,0.612v12.059l-21.19,4.328L126.164,0.304z"/>
<path fill="#F08580" d="M86.272,0.304c-0.694-0.578-1.247-0.31-1.247,0.626v12.252l21.19,4.413L86.272,0.304z"/>
<polygon fill="#EA504D" points="106.216,16.958 84.83,12.377 84.83,16.958 "/>
<path fill="#EB5C5C" d="M72.545,9.949c-0.919-0.2-1.654,0.426-1.654,1.358v5.652h14.561v-4.41L72.545,9.949z"/>
<path fill="#FFEA84" d="M139.908,9.949c0.903-0.2,1.637,0.426,1.637,1.358v5.652h-14.643v-4.41L139.908,9.949z"/>
<path fill="#97D2D8" d="M146.752,16.519c1.017,0.017,1.865,0.721,1.865,1.597v48.545c0,0.875-0.849,1.583-1.865,1.583l0,0h-6.248
	V16.519H146.752z"/>
<rect x="126.646" y="16.519" fill="#DED263" width="14.898" height="51.726"/>
<rect x="70.892" y="16.519" fill="#E32049" width="15.281" height="51.726"/>
<path fill="#D01E40" d="M65.8,16.519c-1.087,0.017-1.978,0.721-1.978,1.597v48.545c0,0.875,0.891,1.583,1.978,1.583h6.602V16.519
	H65.8z"/>
<rect x="70.892" y="16.519" fill="#E32049" width="14.134" height="51.726"/>
<polygon fill="#EA504D" points="85.026,72.403 106.216,68.248 85.026,68.248 "/>
<polygon fill="#EA504D" points="106.216,16.519 85.026,12.377 85.026,16.519 "/>
<rect x="85.026" y="16.519" fill="#E73538" width="21.19" height="51.726"/>
<path fill="#EB5C5C" d="M72.485,9.949c-0.876-0.169-1.594,0.394-1.594,1.274v5.316h14.134v-4.162L72.485,9.949z"/>
<path fill="#F08580" d="M86.272,0.29c-0.694-0.549-1.247-0.295-1.247,0.58v11.507l21.19,4.142L86.272,0.29z"/>
<path fill="#D01E40" d="M65.448,16.519c-0.891,0.017-1.626,0.721-1.626,1.597v48.545c0,0.875,0.735,1.583,1.64,1.583h5.43V16.519
	H65.448z"/>
<path fill="#EB5C5C" d="M70.892,68.248v5.316c0,0.876,0.721,1.453,1.594,1.285l12.527-2.446v-4.155H70.892z"/>
<path fill="#F08580" d="M86.272,84.49l19.944-16.242l-21.19,4.155v11.503C85.026,84.786,85.578,85.043,86.272,84.49"/>
<rect x="127.406" y="16.519" fill="#DED263" width="14.139" height="51.726"/>
<polygon fill="#FECC36" points="127.406,72.403 106.216,68.248 127.406,68.248 "/>
<polygon fill="#FECC36" points="106.216,16.519 127.406,12.377 127.406,16.519 "/>
<rect x="106.216" y="16.519" fill="#F1BE1C" width="21.19" height="51.726"/>
<path fill="#FFEA84" d="M139.961,9.949c0.88-0.187,1.584,0.394,1.584,1.274v5.299h-14.139V12.38L139.961,9.949z"/>
<path fill="#FFD54B" d="M126.164,0.29c0.679-0.549,1.242-0.295,1.242,0.58v11.507l-21.19,4.142L126.164,0.29z"/>
<path fill="#97D2D8" d="M146.978,16.519c0.904,0.017,1.64,0.721,1.64,1.597v48.545c0,0.875-0.735,1.583-1.64,1.583l0,0h-5.433
	V16.519H146.978z"/>
<path fill="#FFEA84" d="M141.545,68.248v5.316c0,0.876-0.704,1.453-1.579,1.285l-12.553-2.446v-4.155H141.545z"/>
<path fill="#FFD54B" d="M126.164,84.49l-19.948-16.242l21.19,4.155v11.503C127.406,84.786,126.846,85.043,126.164,84.49"/>
<rect x="70.892" y="16.519" fill="#E32049" width="14.134" height="51.726"/>
<polygon fill="#EA504D" points="85.026,72.403 106.216,68.248 85.026,68.248 "/>
<polygon fill="#EA504D" points="106.216,16.519 85.026,12.377 85.026,16.519 "/>
<rect x="85.026" y="16.519" fill="#E73538" width="21.19" height="51.726"/>
<path fill="#EB5C5C" d="M72.485,9.949c-0.876-0.169-1.594,0.394-1.594,1.274v5.316h14.134v-4.162L72.485,9.949z"/>
<path fill="#F08580" d="M86.272,0.29c-0.694-0.549-1.247-0.295-1.247,0.58v11.507l21.19,4.142L86.272,0.29z"/>
<path fill="#D01E40" d="M65.448,16.519c-0.891,0.017-1.626,0.721-1.626,1.597v48.545c0,0.875,0.735,1.583,1.64,1.583h5.43V16.519
	H65.448z"/>
<path fill="#EB5C5C" d="M70.892,68.248v5.316c0,0.876,0.721,1.453,1.594,1.285l12.527-2.446v-4.155H70.892z"/>
<path fill="#F08580" d="M86.272,84.49l19.944-16.242l-21.19,4.155v11.503C85.026,84.786,85.578,85.043,86.272,84.49"/>
<rect x="127.406" y="16.519" fill="#DED263" width="14.139" height="51.726"/>
<polygon fill="#FECC36" points="127.406,72.403 106.216,68.248 127.406,68.248 "/>
<polygon fill="#FECC36" points="106.216,16.519 127.406,12.377 127.406,16.519 "/>
<rect x="106.216" y="16.519" fill="#F1BE1C" width="21.19" height="51.726"/>
<path fill="#FFEA84" d="M139.961,9.949c0.88-0.187,1.584,0.394,1.584,1.274v5.299h-14.139V12.38L139.961,9.949z"/>
<path fill="#FFD54B" d="M126.164,0.29c0.679-0.549,1.242-0.295,1.242,0.58v11.507l-21.19,4.142L126.164,0.29z"/>
<path fill="#97D2D8" d="M146.978,16.519c0.904,0.017,1.64,0.721,1.64,1.597v48.545c0,0.875-0.735,1.583-1.64,1.583l0,0h-5.433
	V16.519H146.978z"/>
<path fill="#FFEA84" d="M141.545,68.248v5.316c0,0.876-0.704,1.453-1.579,1.285l-12.553-2.446v-4.155H141.545z"/>
<path fill="#FFD54B" d="M126.164,84.49l-19.948-16.242l21.19,4.155v11.503C127.406,84.786,126.846,85.043,126.164,84.49"/>
<g>
	<path fill="#414142" d="M32.236,102.805c-6.147,0-11.156,5.141-11.156,11.45c0,6.183,5.056,11.215,11.297,11.215
		c4.491,0,8.532-2.624,10.353-6.665c0.068-0.168,0.047-0.341-0.05-0.482c-0.091-0.156-0.235-0.229-0.424-0.229h-2.741
		c-0.185,0-0.356,0.098-0.45,0.25c-1.395,2.397-3.853,3.768-6.736,3.768c-3.759,0-7.088-2.882-7.585-6.544l-0.023-0.062h18.436
		c0.259,0,0.497-0.224,0.497-0.509v-0.776C43.651,107.813,38.616,102.805,32.236,102.805 M32.189,106.195
		c3.827,0,7.088,2.515,7.895,6.121v0.044H24.765v-0.044C25.524,108.819,28.715,106.195,32.189,106.195"/>
	<path fill="#414142" d="M128.427,102.805c-6.338,0-11.465,5.105-11.465,11.367c0,6.212,5.101,11.295,11.365,11.295
		c6.288,0,11.395-5.162,11.395-11.485C139.722,107.825,134.639,102.805,128.427,102.805 M128.327,121.875
		c-4.276,0-7.75-3.485-7.75-7.788c0-4.241,3.497-7.688,7.8-7.688c4.253,0,7.703,3.471,7.703,7.738
		C136.08,118.398,132.604,121.875,128.327,121.875"/>
	<path fill="#414142" d="M71.514,106.634c0.285,0,0.521-0.235,0.521-0.506v-2.447c0-0.282-0.209-0.518-0.521-0.518h-4.441v0.012
		c-1.135,0-2.056,0.897-2.08,2.009v1.418l-0.097-0.085c-1.965-2.438-4.706-3.712-7.889-3.712c-3.971,0-7.662,2.032-9.412,5.161
		l-0.141,0.215c-0.803,1.453-1.676,2.968-1.676,5.93c-0.071,2.165,0.497,4.197,1.724,6.253c1.915,3.142,5.556,5.104,9.529,5.104
		c3.142,0,5.93-1.303,7.865-3.662l0.094-0.082v1.191c0.027,1.085,0.9,1.958,1.982,1.997h4.542c0.312,0,0.521-0.224,0.521-0.509
		v-2.456c0-0.271-0.209-0.497-0.521-0.497h-2.93v-14.815H71.514L71.514,106.634z M57.148,121.923c-4.206,0-7.753-3.548-7.753-7.751
		c0-4.288,3.547-7.776,7.894-7.776c4.253,0,7.727,3.45,7.727,7.688C65.017,118.484,61.543,121.923,57.148,121.923"/>
	<path fill="#414142" d="M88.291,103.004c-0.091-0.082-0.282-0.129-0.518-0.179c-0.376-0.048-0.709-0.06-1.135-0.023
		c-2.177,0.141-4.065,1.632-5.248,3.047l-0.044,0.097v-0.756c-0.047-1.111-0.968-2.032-2.08-2.032l0,0h-4.535
		c-0.259,0-0.5,0.238-0.5,0.518v2.438c0,0.282,0.241,0.518,0.5,0.518h2.974v14.807h-2.974c-0.259,0-0.5,0.224-0.5,0.509v2.456
		c0,0.285,0.241,0.509,0.5,0.509h9.594c0.262,0,0.474-0.224,0.474-0.509v-2.456c0-0.271-0.212-0.497-0.474-0.497h-2.977v-7.751
		c0-3.711,1.794-7.797,6.618-7.373c0.283,0.023,0.471-0.235,0.471-0.497v-2.456C88.432,103.23,88.391,103.102,88.291,103.004"/>
	<path fill="#414142" d="M212.085,103.157h-4.418c-0.686,0.105-1.229,0.529-1.538,1.112l-0.944,2.364l0,0l-5.456,13.268
		l-5.105-13.268l0,0l-0.874-2.244l0,0c-0.285-0.639-0.873-1.111-1.605-1.229h-4.468c-0.282,0-0.494,0.238-0.494,0.506v2.447
		c0,0.282,0.212,0.506,0.494,0.506h2.977l7.091,17.924l-1.067,2.718l0,0c-0.662,1.512-1.865,2.436-3.235,2.436
		c-1.064,0-1.865-0.427-2.271-0.662c-0.095-0.067-0.212-0.094-0.327-0.047c-0.12,0.023-0.214,0.105-0.262,0.209l-0.943,2.153
		c-0.092,0.185-0.048,0.402,0.144,0.497c0.518,0.326,1.938,1.05,3.827,1.05c2.929,0,5.2-1.63,6.426-4.571l0,0l0.095-0.19
		c0,0,0,0,0-0.012l8.982-21.492h2.974c0.285,0,0.497-0.235,0.497-0.518v-2.438C212.582,103.396,212.37,103.157,212.085,103.157"/>
	<path fill="#414142" d="M184.27,121.449h-4.371v-14.815h4.065c0.285,0,0.497-0.235,0.497-0.518v-2.438
		c0-0.282-0.212-0.518-0.497-0.518h-4.065v-6.947c0-0.285-0.235-0.506-0.518-0.506h-2.6c-0.288,0-0.523,0.221-0.523,0.506v6.947
		h-3.471c-0.288,0-0.497,0.238-0.497,0.518v2.438c0,0.282,0.209,0.518,0.497,0.518h3.471v16.068
		c0.094,1.229,1.088,2.209,2.317,2.209h5.694c0.282,0,0.5-0.224,0.5-0.509v-2.456C184.77,121.661,184.552,121.449,184.27,121.449"/>
	<path fill="#414142" d="M165.48,100.201h2.601c0.282,0,0.518-0.224,0.518-0.497v-3.497c0-0.285-0.235-0.506-0.518-0.506h-2.601
		c-0.282,0-0.523,0.221-0.523,0.506v3.497C164.957,99.992,165.198,100.201,165.48,100.201"/>
	<path fill="#414142" d="M171.581,121.449h-2.977v-16.26c-0.05-1.123-0.947-2.032-2.082-2.032h-4.539
		c-0.262,0-0.497,0.238-0.497,0.518v2.438c0,0.282,0.235,0.518,0.497,0.518h2.974v14.815h-3.023c-0.285,0-0.518,0.212-0.518,0.497
		v2.456c0,0.285,0.232,0.509,0.518,0.509h9.642c0.259,0,0.474-0.224,0.474-0.509v-2.453
		C172.052,121.661,171.84,121.449,171.581,121.449"/>
	<path fill="#414142" d="M151.869,112.563c-2.507-0.851-5.13-1.724-5.13-3.803c0-1.574,1.535-2.601,3.95-2.601
		c2.268,0,3.924,0.944,3.924,2.221v1.085c0,0.18,0.141,0.321,0.309,0.321h3.094c0.188,0,0.33-0.142,0.33-0.321v-2.279
		c0-3.18-4.727-4.35-7.706-4.35c-4.086,0-8.222,1.844-8.222,5.968c0,3.744,3.165,5.197,6.95,6.567l0.612,0.215
		c2.858,0.979,4.918,1.677,4.918,3.709c0,1.656-1.798,2.765-4.488,2.765c-2.459,0-5.062-0.85-5.062-2.697v-1.085
		c0-0.18-0.141-0.309-0.332-0.309h-3.092c-0.167,0-0.309,0.129-0.309,0.309v1.985c0,3.235,4.395,5.177,8.671,5.177
		c5.412,0,8.912-2.503,8.912-6.356C159.192,115.243,155.742,113.816,151.869,112.563"/>
	<path fill="#414142" d="M116.139,121.449h-2.979v-8.745c0-2.809-0.756-4.727-1.206-5.623c-1.535-3.133-5.362-4.276-7.586-4.276
		c-2.458,0-4.868,1.038-6.379,2.765l-0.073,0.082v-0.518c-0.071-1.088-0.965-1.974-2.056-1.974l0,0h-4.536
		c-0.285,0-0.521,0.238-0.521,0.518v2.438c0,0.282,0.235,0.518,0.521,0.518h2.974v14.815h-2.974c-0.285,0-0.521,0.212-0.521,0.497
		v2.456c0,0.285,0.235,0.509,0.521,0.509h9.547c0.283,0,0.521-0.224,0.521-0.509v-2.456c0-0.285-0.238-0.497-0.521-0.497h-2.956
		v-8.106c0-2.103,0.073-3.588,1.253-4.959c1.041-1.229,2.788-1.985,4.491-1.985c1.085,0,3.783,0.209,4.961,2.268
		c0.854,1.441,0.9,3.047,0.9,4.988v9.301c0.094,1.062,0.941,1.924,2.009,1.959h4.609c0.282,0,0.494-0.224,0.494-0.509v-2.459
		C116.633,121.661,116.415,121.449,116.139,121.449"/>
	<path fill="#414142" d="M19.047,116.625h-2.859c-0.259,0-0.497,0.227-0.497,0.509v4.147H7.471v-18.124v-3.841h3.071
		c0.282,0,0.518-0.221,0.518-0.506v-2.598c0-0.285-0.235-0.506-0.518-0.506H5.53v0.012c-0.047,0-0.094-0.012-0.142-0.012H0.518
		C0.235,95.707,0,95.928,0,96.213v2.598c0,0.285,0.235,0.506,0.518,0.506h3.071v21.965H0.518c-0.282,0-0.518,0.238-0.518,0.497
		v2.624c0,0.271,0.235,0.497,0.518,0.497H5.93h3.047h10.071c0.283,0,0.497-0.227,0.497-0.497v-7.269
		C19.544,116.866,19.33,116.625,19.047,116.625"/>
</g>
</svg>
